<?xml version="1.0" encoding="utf-8"?>
<!-- Generator: Adobe Illustrator 27.0.0, SVG Export Plug-In . SVG Version: 6.00 Build 0)  -->
<svg version="1.1" id="Layer_1" xmlns="http://www.w3.org/2000/svg" xmlns:xlink="http://www.w3.org/1999/xlink" x="0px" y="0px"
	 viewBox="0 0 990.2 435" style="enable-background:new 0 0 990.2 435;" xml:space="preserve">
<style type="text/css">
	.st0{fill:#FFFFFF;}
</style>
<g>
	<g>
		<path class="st0" d="M28.6,49.7h146.5c34.3,0,61.6,8.3,81.9,25c20.3,16.7,30.5,37.8,30.5,63.4c0,38.1-22.3,63.9-66.8,77.3
			c22.7,3.2,40.8,12.7,54.3,28.3c13.4,15.7,20.2,34.1,20.2,55.2c0,26.9-9.8,48.3-29.5,64.1c-19.7,15.8-47.2,23.8-82.4,23.8H28.6
			V49.7z M110.7,112.1v73h53.8c11.8,0,21.4-3,28.6-9.1c7.2-6.1,10.8-15.1,10.8-27.1c0-12-3.6-21.1-10.8-27.4
			c-7.2-6.2-16.7-9.4-28.6-9.4H110.7z M110.7,324.4h62c11.2,0,20.5-3.4,27.9-10.1c7.4-6.7,11-16,11-27.9c0-11.8-3.5-21.3-10.6-28.3
			c-7-7-16.2-10.6-27.4-10.6h-62.9V324.4z"/>
		<path class="st0" d="M490.2,325.3c-10.3,0-18.7-2.7-25.2-8.2c-6.6-5.4-9.8-13.3-9.8-23.5c0-10.3,3-18.5,9.1-24.7
			c6.1-6.2,14-11,23.8-14.4c9.8-3.4,20.7-6.6,32.7-9.6c12-3,23.9-6.7,35.8-11c11.8-4.3,22.7-9.7,32.4-16.1
			c9.8-6.4,17.7-15.5,23.8-27.1c6.1-11.7,9.1-25.7,9.1-42c0-28.5-11.6-52.9-34.8-73.2c-23.2-20.3-53.8-30.5-91.7-30.5
			c-37.9,0-68.5,9.1-91.7,27.4c-23.2,18.3-34.8,44.2-34.8,77.8h87.4c2.2-26.9,16-40.3,41.3-40.3c11.8,0,21.1,3.1,27.9,9.4
			c6.7,6.2,10.1,14.2,10.1,23.8s-3,17.4-9.1,23.5c-6.1,6.1-14,10.9-23.8,14.4c-9.8,3.5-20.6,6.8-32.7,9.8c-12,3-23.9,6.8-35.8,11.3
			c-11.8,4.5-22.7,9.8-32.4,16.1c-9.8,6.2-17.7,15.2-23.8,26.9c-6.1,11.7-9.1,25.5-9.1,41.5c0,31.4,11.7,56.5,35.1,75.4
			c23.4,18.9,53.2,28.3,89.6,28.3c36.3,0,65.7-8.2,88.1-24.7c22.4-16.5,34.1-42.5,35.1-78h-89.3c-1.3,12.2-5.2,21.5-11.8,28.1
			C508.8,322.1,500.4,325.3,490.2,325.3z"/>
		<path class="st0" d="M695.5,322.9v62.4h266.1v-62.4h-92.2V48.2h-82.1v274.7H695.5z"/>
	</g>
</g>
</svg>
